<?xml version="1.0" encoding="UTF-8" standalone="no"?>
<!-- Created with Inkscape (http://www.inkscape.org/) -->

<svg
   xmlns:dc="http://purl.org/dc/elements/1.1/"
   xmlns:cc="http://creativecommons.org/ns#"
   xmlns:rdf="http://www.w3.org/1999/02/22-rdf-syntax-ns#"
   xmlns:svg="http://www.w3.org/2000/svg"
   xmlns="http://www.w3.org/2000/svg"
   xmlns:sodipodi="http://sodipodi.sourceforge.net/DTD/sodipodi-0.dtd"
   xmlns:inkscape="http://www.inkscape.org/namespaces/inkscape"
   width="117.15188mm"
   height="111.98997mm"
   viewBox="0 0 117.15188 111.98997"
   version="1.1"
   id="svg706"
   inkscape:version="0.92.3 (2405546, 2018-03-11)"
   sodipodi:docname="phone-rotary-offhook.svg"
   inkscape:export-filename="/home/algot/Documents/runeman.org/clipart/2019/phone-rotary-offhook.png"
   inkscape:export-xdpi="65.04377"
   inkscape:export-ydpi="65.04377">
  <title
     id="title788">Phone, Rotary, off the hook</title>
  <defs
     id="defs700" />
  <sodipodi:namedview
     id="base"
     pagecolor="#ffffff"
     bordercolor="#666666"
     borderopacity="1.0"
     inkscape:pageopacity="0.0"
     inkscape:pageshadow="2"
     inkscape:zoom="0.35"
     inkscape:cx="289.96081"
     inkscape:cy="117.34888"
     inkscape:document-units="mm"
     inkscape:current-layer="layer1"
     showgrid="false"
     fit-margin-top="0"
     fit-margin-left="0"
     fit-margin-right="0"
     fit-margin-bottom="0"
     inkscape:window-width="1366"
     inkscape:window-height="712"
     inkscape:window-x="0"
     inkscape:window-y="0"
     inkscape:window-maximized="1" />
  <metadata
     id="metadata703">
    <rdf:RDF>
      <cc:Work
         rdf:about="">
        <dc:format>image/svg+xml</dc:format>
        <dc:type
           rdf:resource="http://purl.org/dc/dcmitype/StillImage" />
        <dc:title>Phone, Rotary, off the hook</dc:title>
        <dc:date>2019-04-04</dc:date>
        <dc:creator>
          <cc:Agent>
            <dc:title>Algot Runeman</dc:title>
          </cc:Agent>
        </dc:creator>
        <dc:rights>
          <cc:Agent>
            <dc:title>Algot Runeman</dc:title>
          </cc:Agent>
        </dc:rights>
        <dc:publisher>
          <cc:Agent>
            <dc:title>runeman.org</dc:title>
          </cc:Agent>
        </dc:publisher>
        <dc:identifier>phone-rotary-offhook.svg</dc:identifier>
        <cc:license
           rdf:resource="http://creativecommons.org/publicdomain/zero/1.0/" />
      </cc:Work>
      <cc:License
         rdf:about="http://creativecommons.org/publicdomain/zero/1.0/">
        <cc:permits
           rdf:resource="http://creativecommons.org/ns#Reproduction" />
        <cc:permits
           rdf:resource="http://creativecommons.org/ns#Distribution" />
        <cc:permits
           rdf:resource="http://creativecommons.org/ns#DerivativeWorks" />
      </cc:License>
    </rdf:RDF>
  </metadata>
  <g
     inkscape:label="Layer 1"
     inkscape:groupmode="layer"
     id="layer1"
     transform="translate(-29.114534,-67.891914)">
    <g
       id="g102"
       transform="matrix(-0.14111111,0.24441161,0.24441161,0.14111111,10.922533,-32.298277)">
      <path
         sodipodi:nodetypes="ccccc"
         inkscape:connector-curvature="0"
         id="path2987"
         d="m 170,428.36218 c -2.66666,10.66666 -2.66667,23.33334 0,26 l 50,-6 c 2.66667,-6.66667 4.66666,-13.33333 2,-20 z"
         style="fill:#000000;stroke:#cccccc;stroke-width:1px;stroke-linecap:butt;stroke-linejoin:miter;stroke-opacity:1" />
      <path
         sodipodi:nodetypes="ccccc"
         inkscape:connector-curvature="0"
         id="path2989"
         d="m 348,428.36218 c -2.66666,6.66667 -0.66667,13.33333 2,20 l 50,6 c 3.39363,-6.66667 1.83801,-19.33333 0,-26 z"
         style="fill:#000000;stroke:#cccccc;stroke-width:1px;stroke-linecap:butt;stroke-linejoin:miter;stroke-opacity:1" />
      <path
         sodipodi:nodetypes="ccccccccc"
         inkscape:connector-curvature="0"
         id="path2991"
         d="m 170,428.36218 c 1.33333,-16 8,-29.33333 20,-40 63.33333,-5.52446 126.66667,-5.13933 190,0 16,13.33333 22.66667,26.66667 20,40 h -50 l -4,-20 H 224 l -4,20 z"
         style="fill:#000000;stroke:#000000;stroke-width:1px;stroke-linecap:butt;stroke-linejoin:miter;stroke-opacity:1" />
    </g>
    <path
       style="fill:#000000;stroke:#000000;stroke-width:0.28222224px;stroke-linecap:butt;stroke-linejoin:miter;stroke-opacity:1"
       d="m 128.34444,135.14967 h -5.64445 v 5.64444 h -19.75555 v -5.64444 h -5.644447 v 5.64444 2.82222 l -2.822221,8.46667 -14.111113,2.82222 c -2.295265,8.67356 -0.455435,15.27957 0,22.57778 21.637041,0.20956 43.274071,0.55746 64.911111,0 0.39197,-7.52593 1.69145,-15.05185 0,-22.57778 l -14.11111,-2.82222 -2.82222,-5.64444 z"
       id="path2993"
       inkscape:connector-curvature="0"
       sodipodi:nodetypes="cccccccccccccccc" />
    <ellipse
       ry="8.4666662"
       rx="14.111112"
       cy="157.72745"
       cx="-112.68102"
       style="fill:#e6e6e6;fill-opacity:1;stroke:none;stroke-width:0.28222224"
       id="path2995"
       transform="scale(-1,1)" />
    <ellipse
       ry="1.4111111"
       rx="2.8222222"
       cy="159.703"
       cx="-102.66221"
       style="fill:#666666;fill-opacity:1;stroke:#cccccc;stroke-width:0.07055556;stroke-miterlimit:4;stroke-dasharray:none;stroke-dashoffset:0;stroke-opacity:1"
       id="path3019"
       transform="scale(-1,1)" />
    <path
       style="fill:#e6e6e6;stroke:#000000;stroke-width:0.28222224px;stroke-linecap:butt;stroke-linejoin:miter;stroke-opacity:1"
       d="m 98.428882,160.54967 4.515558,-2.82222 c -1.88149,0.39197 -3.762964,1.69145 -5.644447,0 z"
       id="path2997"
       inkscape:connector-curvature="0"
       sodipodi:nodetypes="cccc" />
    <ellipse
       ry="3.3492956"
       rx="5.0426292"
       cy="158.00966"
       cx="-111.97554"
       style="fill:#b3b3b3;fill-opacity:1;stroke:#cccccc;stroke-width:0.14529821;stroke-miterlimit:4;stroke-dasharray:none;stroke-dashoffset:0;stroke-opacity:1"
       id="path2999"
       transform="scale(-1,1)" />
    <ellipse
       ry="1.4111111"
       rx="2.8222222"
       cy="153.49411"
       cx="-104.35555"
       id="path3001"
       style="fill:#666666;fill-opacity:1;stroke:#cccccc;stroke-width:0.07055556;stroke-miterlimit:4;stroke-dasharray:none;stroke-dashoffset:0;stroke-opacity:1"
       transform="scale(-1,1)" />
    <ellipse
       ry="1.4111111"
       rx="2.8222222"
       cy="151.80078"
       cx="-109.43555"
       style="fill:#666666;fill-opacity:1;stroke:#cccccc;stroke-width:0.07055556;stroke-miterlimit:4;stroke-dasharray:none;stroke-dashoffset:0;stroke-opacity:1"
       id="path3003"
       transform="scale(-1,1)" />
    <ellipse
       ry="1.4111111"
       rx="2.8222222"
       cy="151.80078"
       cx="-115.64443"
       id="path3005"
       style="fill:#666666;fill-opacity:1;stroke:#cccccc;stroke-width:0.07055556;stroke-miterlimit:4;stroke-dasharray:none;stroke-dashoffset:0;stroke-opacity:1"
       transform="scale(-1,1)" />
    <ellipse
       ry="1.4111111"
       rx="2.8222222"
       cy="154.05856"
       cx="-120.72443"
       style="fill:#666666;fill-opacity:1;stroke:#cccccc;stroke-width:0.07055556;stroke-miterlimit:4;stroke-dasharray:none;stroke-dashoffset:0;stroke-opacity:1"
       id="path3007"
       transform="scale(-1,1)" />
    <ellipse
       ry="1.4111111"
       rx="2.8222222"
       cy="157.44522"
       cx="-122.98222"
       id="path3009"
       style="fill:#666666;fill-opacity:1;stroke:#cccccc;stroke-width:0.07055556;stroke-miterlimit:4;stroke-dasharray:none;stroke-dashoffset:0;stroke-opacity:1"
       transform="scale(-1,1)" />
    <ellipse
       ry="1.4111111"
       rx="2.8222222"
       cy="160.83189"
       cx="-121.85332"
       style="fill:#666666;fill-opacity:1;stroke:#cccccc;stroke-width:0.07055556;stroke-miterlimit:4;stroke-dasharray:none;stroke-dashoffset:0;stroke-opacity:1"
       id="path3011"
       transform="scale(-1,1)" />
    <ellipse
       ry="1.4111111"
       rx="2.8222222"
       cy="163.65411"
       cx="-117.90221"
       id="path3013"
       style="fill:#666666;fill-opacity:1;stroke:#cccccc;stroke-width:0.07055556;stroke-miterlimit:4;stroke-dasharray:none;stroke-dashoffset:0;stroke-opacity:1"
       transform="scale(-1,1)" />
    <ellipse
       ry="1.4111111"
       rx="2.8222222"
       cy="164.21855"
       cx="-110.56444"
       style="fill:#666666;fill-opacity:1;stroke:#cccccc;stroke-width:0.07055556;stroke-miterlimit:4;stroke-dasharray:none;stroke-dashoffset:0;stroke-opacity:1"
       id="path3015"
       transform="scale(-1,1)" />
    <ellipse
       ry="1.4111111"
       rx="2.8222222"
       cy="162.80745"
       cx="-104.91999"
       id="path3017"
       style="fill:#666666;fill-opacity:1;stroke:#cccccc;stroke-width:0.07055556;stroke-miterlimit:4;stroke-dasharray:none;stroke-dashoffset:0;stroke-opacity:1"
       transform="scale(-1,1)" />
    <path
       style="fill:#000000;stroke:#000000;stroke-width:0.28222224px;stroke-linecap:butt;stroke-linejoin:miter;stroke-opacity:1"
       d="m 142.45555,176.91856 v 2.82222 h -5.64445 v -2.82222 z"
       id="path3012"
       inkscape:connector-curvature="0" />
    <path
       inkscape:connector-curvature="0"
       id="path3014"
       d="m 88.833326,176.63634 v 2.82222 h -5.644444 v -2.82222 z"
       style="fill:#000000;stroke:#000000;stroke-width:0.28222224px;stroke-linecap:butt;stroke-linejoin:miter;stroke-opacity:1" />
    <g
       id="g154"
       transform="matrix(-0.28222223,0,0,0.28222223,56.201367,1.9267565)">
      <path
         sodipodi:nodetypes="cssccsccccsssss"
         inkscape:connector-curvature="0"
         id="path104"
         transform="matrix(0.9375,0,0,0.9375,166.49998,383.86196)"
         d="m -226.87868,197.05491 c 0,0 -15.95009,2.68468 -20.58579,7.47487 -5.41584,5.59634 -8.93496,13.79018 -7.53553,19.40381 1.35384,5.43077 1.33501,13.54443 10.93934,13.47487 L -236,235.93359 c 6.41354,-1.29323 7.66159,-5.95111 7,-10 -0.9188,-5.62301 -2.54939,-10.69012 -14,-14 l 10,-5 5.87868,-1.53553 z m -17.77952,22.42751 c 3.00917,-1.51776 7.40369,2.71889 8.13086,6.00977 0.31857,1.44174 -0.67681,3.58189 -2.1211,3.88867 -2.46682,0.52398 -4.89251,-2.33484 -6.00976,-4.5957 -0.78309,-1.58465 -1.5782,-4.50673 0,-5.30274 z"
         style="fill:#000000;fill-rule:evenodd;stroke:#000000;stroke-width:1px;stroke-linecap:butt;stroke-linejoin:miter;stroke-opacity:1" />
      <path
         style="fill:#000000;fill-rule:evenodd;stroke:#000000;stroke-width:0.9375px;stroke-linecap:butt;stroke-linejoin:miter;stroke-opacity:1"
         d="m -24.985579,554.67977 c 0,0 -14.953209,2.51689 -19.299178,7.00769 -5.07735,5.24657 -8.376525,12.9283 -7.06456,18.19108 1.269225,5.09134 1.251572,12.6979 10.255632,12.63269 l 7.556868,-1.38269 c 6.012694,-1.21241 7.182741,-5.57917 6.5625,-9.375 -0.861375,-5.27158 -2.390053,-10.02199 -13.125,-13.125 l 9.375,-4.6875 5.511263,-1.43956 z m -16.6683,21.02579 c 2.821097,-1.4229 6.940959,2.54896 7.622681,5.63416 0.29866,1.35163 -0.634509,3.35803 -1.988531,3.64563 -2.312644,0.49123 -4.586728,-2.18891 -5.63415,-4.30847 -0.734147,-1.48561 -1.479563,-4.22506 0,-4.97132 z"
         id="path117"
         inkscape:connector-curvature="0"
         sodipodi:nodetypes="cssccsccccsssss" />
      <path
         sodipodi:nodetypes="cssccsccccsssss"
         inkscape:connector-curvature="0"
         id="path119"
         d="m -3.1094629,540.42715 c 0,0 -14.9532091,2.51689 -19.2991781,7.00769 -5.07735,5.24657 -8.376525,12.9283 -7.06456,18.19108 1.269225,5.09134 1.251572,12.6979 10.255632,12.63269 l 7.556868,-1.38269 c 6.0126941,-1.21241 7.1827411,-5.57917 6.5625001,-9.375 -0.861375,-5.27158 -2.390053,-10.02199 -13.1250001,-13.125 l 9.3750001,-4.6875 5.511263,-1.43956 z m -16.6683001,21.02579 c 2.821097,-1.4229 6.940959,2.54896 7.622681,5.63416 0.29866,1.35163 -0.634509,3.35803 -1.988531,3.64563 -2.312644,0.49123 -4.586728,-2.18891 -5.63415,-4.30847 -0.734147,-1.48561 -1.479563,-4.22506 0,-4.97132 z"
         style="fill:#000000;fill-rule:evenodd;stroke:#000000;stroke-width:0.9375px;stroke-linecap:butt;stroke-linejoin:miter;stroke-opacity:1" />
      <path
         style="fill:#000000;fill-rule:evenodd;stroke:#000000;stroke-width:0.9375px;stroke-linecap:butt;stroke-linejoin:miter;stroke-opacity:1"
         d="m 18.766653,526.83744 c 0,0 -14.9532089,2.51689 -19.29917794,7.00769 -5.07734996,5.24657 -8.37652496,12.9283 -7.06455996,18.19108 1.269225,5.09134 1.251572,12.6979 10.255632,12.63269 l 7.5568679,-1.38269 c 6.012694,-1.21241 7.182741,-5.57917 6.5625,-9.375 -0.861375,-5.27158 -2.390053,-10.02199 -13.1249999,-13.125 l 9.3749999,-4.6875 5.511263,-1.43956 z M 2.0983531,547.86323 c 2.821097,-1.4229 6.940959,2.54896 7.622681,5.63416 0.2986599,1.35163 -0.634509,3.35803 -1.988531,3.64563 -2.312644,0.49123 -4.586728,-2.18891 -5.63415,-4.30847 -0.734147,-1.48561 -1.47956304,-4.22506 0,-4.97132 z"
         id="path121"
         inkscape:connector-curvature="0"
         sodipodi:nodetypes="cssccsccccsssss" />
      <path
         sodipodi:nodetypes="cssccsccccsssss"
         inkscape:connector-curvature="0"
         id="path123"
         d="m 41.637138,512.91628 c 0,0 -14.953209,2.51689 -19.299178,7.00769 -5.07735,5.24657 -8.376525,12.9283 -7.06456,18.19108 1.269225,5.09134 1.251572,12.6979 10.255632,12.63269 l 7.556868,-1.38269 c 6.012694,-1.21241 7.182741,-5.57917 6.5625,-9.375 -0.861375,-5.27158 -2.390053,-10.02199 -13.125,-13.125 l 9.375,-4.6875 5.511263,-1.43956 z m -16.6683,21.02579 c 2.821097,-1.4229 6.940959,2.54896 7.622681,5.63416 0.29866,1.35163 -0.634509,3.35803 -1.988531,3.64563 -2.312644,0.49123 -4.586728,-2.18891 -5.63415,-4.30847 -0.734147,-1.48561 -1.479563,-4.22506 0,-4.97132 z"
         style="fill:#000000;fill-rule:evenodd;stroke:#000000;stroke-width:0.9375px;stroke-linecap:butt;stroke-linejoin:miter;stroke-opacity:1" />
      <path
         style="fill:#000000;fill-rule:evenodd;stroke:#000000;stroke-width:0.9375px;stroke-linecap:butt;stroke-linejoin:miter;stroke-opacity:1"
         d="m 57.51204,495.85884 c 0,0 -13.792272,6.30131 -16.827851,11.76391 -3.546431,6.38191 -4.745011,14.65578 -2.115643,19.39967 2.543713,4.58936 4.495384,11.9413 13.175761,9.54789 l 6.941507,-3.29143 c 5.494022,-2.7273 5.494,-7.2481 3.91246,-10.75406 -2.19641,-4.86901 -4.902496,-9.06191 -16.074776,-9.28077 l 7.84234,-6.95421 4.950886,-2.81693 z m -10.658466,24.62343 c 2.356696,-2.10457 7.364171,0.66566 8.821172,3.46929 0.638311,1.22827 0.256233,3.40783 -0.977215,4.03608 -2.106703,1.07304 -4.996971,-0.9272 -6.557285,-2.70344 -1.093636,-1.24498 -2.522674,-3.69816 -1.286672,-4.80193 z"
         id="path125"
         inkscape:connector-curvature="0"
         sodipodi:nodetypes="cssccsccccsssss" />
      <path
         sodipodi:nodetypes="cssccsccccsssss"
         inkscape:connector-curvature="0"
         id="path127"
         d="m 69.86335,475.47077 c 0,0 -11.691413,9.6563 -13.209732,15.71844 -1.77383,7.08233 -0.790134,15.38449 2.97745,19.28621 3.644852,3.77462 7.432843,10.37092 15.197983,5.81241 l 5.853096,-4.97587 c 4.600941,-4.05633 3.430851,-8.42308 0.995791,-11.40024 -3.381762,-4.13463 -7.080842,-7.48428 -17.929081,-4.80408 l 5.775237,-8.747 4.053113,-4.00233 z m -3.922275,26.54302 c 1.731691,-2.64281 7.285528,-1.26301 9.418516,1.06799 0.934461,1.02121 1.129513,3.2254 0.100697,4.15148 -1.757195,1.58173 -5.06668,0.3977 -7.033552,-0.91417 -1.378596,-0.91951 -3.393871,-2.91924 -2.485661,-4.3053 z"
         style="fill:#000000;fill-rule:evenodd;stroke:#000000;stroke-width:0.9375px;stroke-linecap:butt;stroke-linejoin:miter;stroke-opacity:1" />
      <path
         style="fill:#000000;fill-rule:evenodd;stroke:#000000;stroke-width:0.9375px;stroke-linecap:butt;stroke-linejoin:miter;stroke-opacity:1"
         d="m 67.627782,454.98142 c 0,0 -5.29691,14.20831 -3.580745,20.21743 2.004984,7.0204 7.007969,13.71843 12.221653,15.21363 5.043845,1.44649 11.622492,5.26506 16.068045,-2.5653 l 2.580995,-7.23577 c 1.956364,-5.81336 -1.240335,-9.01003 -4.837741,-10.3708 -4.996006,-1.88981 -9.874328,-2.94115 -17.929079,4.80408 l 0.628002,-10.46274 1.508933,-5.49267 z m 9.874721,24.94807 c 0.178281,-3.15459 5.677946,-4.73656 8.690667,-3.78436 1.319873,0.41717 2.590888,2.22853 2.162947,3.54494 -0.73091,2.24842 -4.189025,2.87776 -6.548319,2.72509 -1.653655,-0.10702 -4.398799,-0.8312 -4.305295,-2.48567 z"
         id="path129"
         inkscape:connector-curvature="0"
         sodipodi:nodetypes="cssccsccccsssss" />
      <path
         sodipodi:nodetypes="cssccsccccsssss"
         inkscape:connector-curvature="0"
         id="path131"
         d="m 56.282177,433.33365 c 0,0 2.516898,14.95322 7.007699,19.29918 5.246567,5.07735 12.928294,8.37652 18.191079,7.06457 5.091328,-1.26928 12.697902,-1.25158 12.632684,-10.25564 L 92.73096,441.8849 c -1.212418,-6.0127 -5.579177,-7.18275 -9.375005,-6.56251 -5.271574,0.86138 -10.021994,2.39006 -13.124998,13.125 l -4.687505,-9.375 -1.439559,-5.51126 z m 21.025795,16.6683 c -1.422899,-2.82109 2.548965,-6.94096 5.634158,-7.62268 1.351643,-0.29861 3.35804,0.63451 3.645639,1.98853 0.491223,2.31265 -2.188923,4.58673 -4.308468,5.63416 -1.485615,0.73415 -4.22507,1.47956 -4.971329,-10e-6 z"
         style="fill:#000000;fill-rule:evenodd;stroke:#000000;stroke-width:0.9375px;stroke-linecap:butt;stroke-linejoin:miter;stroke-opacity:1" />
      <path
         style="fill:#000000;fill-rule:evenodd;stroke:#000000;stroke-width:0.9375px;stroke-linecap:butt;stroke-linejoin:miter;stroke-opacity:1"
         d="m 36.40386,424.00045 c 0,0 9.656307,11.69142 15.718435,13.20973 7.082335,1.77383 15.384492,0.79013 19.286221,-2.97744 3.77458,-3.64489 10.370916,-7.43285 5.812407,-15.19798 l -4.975865,-5.8531 c -4.056336,-4.60094 -8.423084,-3.43085 -11.400248,-0.9958 -4.134628,3.38177 -7.484272,7.08085 -4.804082,17.92908 l -8.746999,-5.77523 -4.002324,-4.05311 z m 26.543024,3.92228 c -2.642812,-1.73169 -1.263014,-7.28554 1.067984,-9.41851 1.021251,-0.93443 3.225402,-1.12953 4.15148,-0.10071 1.581737,1.7572 0.397701,5.06668 -0.914163,7.03356 -0.919505,1.3786 -2.919236,3.39388 -4.305301,2.48566 z"
         id="path133"
         inkscape:connector-curvature="0"
         sodipodi:nodetypes="cssccsccccsssss" />
      <path
         sodipodi:nodetypes="csccscc"
         inkscape:connector-curvature="0"
         id="path135"
         d="m 43.861152,419.5888 c 0,0 -7.011623,-8.44843 -11.932435,-10.27514 -4.661046,-1.73028 -14.915531,0 -14.915531,0 l -1.325822,7.95495 c 0,0 9.902116,-1.25875 14.252616,0.66291 3.001482,1.32578 6.960581,6.96058 6.960581,6.96058 z"
         style="fill:#000000;fill-rule:evenodd;stroke:#000000;stroke-width:0.9375px;stroke-linecap:butt;stroke-linejoin:miter;stroke-opacity:1" />
      <path
         sodipodi:nodetypes="ccccc"
         inkscape:connector-curvature="0"
         id="path137"
         d="m 11.709889,399.36997 5.303297,9.28077 -1.657284,9.61223 -8.9493189,7.29204 C 5.7365381,417.3684 4.6574804,409.27268 11.709889,399.36997 Z"
         style="fill:#000000;fill-rule:evenodd;stroke:#000000;stroke-width:0.9375px;stroke-linecap:butt;stroke-linejoin:miter;stroke-opacity:1" />
      <path
         sodipodi:nodetypes="ccccc"
         inkscape:connector-curvature="0"
         id="path139"
         d="m -72.56252,585.36239 -42.1875,0.9375 1.875,7.5 42.1875,-0.9375 z"
         style="fill:#000000;fill-rule:evenodd;stroke:#000000;stroke-width:0.9375px;stroke-linecap:butt;stroke-linejoin:miter;stroke-opacity:1" />
    </g>
  </g>
</svg>
